#!OML:ASF I:\Actors\actors\Patient Classification 1\Patient 1\Session 1\Subject1.ASF
:FULLY-SPECIFIED
:DEGREES
330
root -0.299758 17.6501 7.08467 14.1365 5.24295 -8.06081
lowerback 14.3398 1.68378 5.33473
upperback -2.29443 3.79068 5.40857
thorax -10.6461 1.68214 1.99873
lowerneck -15.7898 -8.50682 -2.12948
upperneck 10.7178 -11.8021 5.46981
head 6.28404 -5.36598 0.875735
rclavicle -6.12257e-014 -4.21423e-014
rhumerus 37.7513 -4.47631 -70.4129
rradius 30.7227
rwrist 35.2182
rhand -1.92448 -53.6392
rfingers 7.12502
rthumb 23.7458 -442.192
lclavicle -6.12257e-014 -4.21423e-014
lhumerus 12.4487 -21.3239 83.1155
lradius 83.8468
lwrist 37.9642
lhand -40.0178 -17.8825
lfingers 7.12502
lthumb -12.9849 11.6934
rfemur -14.552 22.1078 19.5392
rtibia 3.88343
rfoot -10.4064 -29.9045
rtoes 5.84192
lfemur -12.6294 -45.1536 -0.596129
ltibia -3.38666
lfoot -12.6044 50.6968
ltoes 9.99172
331
root -0.297875 17.6544 7.09403 14.1447 5.60526 -7.90033
lowerback 14.5211 1.4819 5.40299
upperback -2.2647 3.56744 5.58478
thorax -10.7288 1.57723 2.20186
lowerneck -15.7515 -8.28053 -2.1188
upperneck 10.6662 -11.4669 5.28458
head 6.23603 -5.2212 0.856548
rclavicle 1.98785e-014 7.95139e-014
rhumerus 35.3233 5.26077 -57.9206
rradius 36.7263
rwrist 26.5629
rhand 0.402533 -52.1725
rfingers 7.12502
rthumb 25.9759 -440.417
lclavicle 1.98785e-014 7.95139e-014
lhumerus 12.2858 -22.2979 81.3098
lradius 84.3498
lwrist 37.5498
lhand -39.2353 -16.6244
lfingers 7.12502
lthumb -12.2306 12.998
rfemur -14.3641 22.3548 19.3591
rtibia 3.69217
rfoot -10.7136 -30.4943
rtoes 6.66252
lfemur -12.7517 -45.1546 -0.667243
ltibia -3.42169
lfoot -12.4132 50.3341
ltoes 9.88834
332
root -0.292358 17.6543 7.10244 14.3254 5.8673 -7.77449
lowerback 14.5233 1.23781 5.5575
upperback -2.26767 3.28386 5.71178
thorax -10.7337 1.43785 2.3215
lowerneck -15.8014 -8.01141 -1.95231
upperneck 10.6441 -11.0606 4.77802
head 6.18133 -5.05948 0.717772
rclavicle 2.78299e-015 5.1684e-014
rhumerus 32.9317 10.556 -51.4688
rradius 44.4222
rwrist 24.4672
rhand 2.92435 -49.5654
rfingers 7.12502
rthumb 28.3883 -437.433
lclavicle 2.78299e-015 5.1684e-014
lhumerus 12.0374 -23.4808 78.9905
lradius 85.0132
lwrist 36.772
lhand -38.0421 -15.1856
lfingers 7.12502
lthumb -11.0799 14.5019
rfemur -14.5248 22.3628 19.1144
rtibia 3.69516
rfoot -10.9215 -30.7643
rtoes 7.2645
lfemur -13.1742 -44.9868 -0.538848
ltibia -3.3506
lfoot -12.2038 49.9412
ltoes 9.80427
333
root -0.286461 17.6534 7.11379 14.5285 5.96137 -7.68114
lowerback 14.4416 1.01672 5.72021
upperback -2.18622 3.01049 5.79212
thorax -10.5907 1.30369 2.38185
lowerneck -16.2364 -7.68571 -1.68932
upperneck 10.9229 -10.6046 4.21266
head 6.27938 -4.85976 0.529736
rclavicle -1.15295e-014 6.2816e-014
rhumerus 31.6763 15.4526 -45.4245
rradius 51.5856
rwrist 20.9896
rhand 5.16986 -47.2636
rfingers 7.12502
rthumb 30.532 -434.753
lclavicle -1.15295e-014 6.2816e-014
lhumerus 11.9294 -24.7421 76.3654
lradius 85.5689
lwrist 35.6581
lhand -36.654 -13.8148
lfingers 7.12502
lthumb -9.74082 15.94
rfemur -14.7625 22.2832 18.9004
rtibia 3.76964
rfoot -10.9819 -30.8069
rtoes 7.23153
lfemur -13.5369 -44.8796 -0.423653
ltibia -3.27276
lfoot -12.0642 49.7708
ltoes 9.567
334
root -0.284144 17.654 7.12935 14.6137 5.78752 -7.77638
lowerback 14.4762 0.884749 5.94709
upperback -2.08127 2.87597 5.86507
thorax -10.4875 1.23051 2.36358
lowerneck -16.2856 -7.34622 -1.41814
upperneck 10.7012 -10.113 3.6734
head 6.15785 -4.66073 0.376766
rclavicle 2.82274e-014 5.80451e-014
rhumerus 30.5564 19.3816 -40.5757
rradius 58.6864
rwrist 17.202
rhand 7.79364 -47.0878
rfingers 7.12502
rthumb 33.0308 -434.081
lclavicle 2.82274e-014 5.80451e-014
lhumerus 11.7154 -26.0007 73.7798
lradius 85.998
lwrist 34.6438
lhand -35.3883 -12.7868
lfingers 7.12502
lthumb -8.51951 17.0214
rfemur -14.8923 22.2661 18.9725
rtibia 3.87093
rfoot -10.9304 -30.6043
rtoes 6.96059
lfemur -13.4875 -45.2043 -0.277579
ltibia -3.32699
lfoot -12.6544 50.2181
ltoes 10.1243
335
root -0.282622 17.654 7.14881 14.6669 5.47084 -7.84136
lowerback 14.4986 0.780527 6.1068
upperback -1.98089 2.75775 5.86855
thorax -10.3812 1.16663 2.30284
lowerneck -16.2871 -7.01753 -1.25087
upperneck 10.6345 -9.67129 3.45576
head 6.1063 -4.45984 0.331394
rclavicle -5.56597e-015 2.38542e-014
rhumerus 29.5968 22.4132 -37.0023
rradius 65.0509
rwrist 13.6846
rhand 9.22654 -46.8606
rfingers 7.12502
rthumb 34.3924 -433.556
lclavicle -5.56597e-015 2.38542e-014
lhumerus 11.335 -27.0423 71.4156
lradius 86.3907
lwrist 34.0724
lhand -33.872 -11.6793
lfingers 7.12502
lthumb -7.056 18.183
rfemur -14.9253 22.3564 19.0259
rtibia 3.89495
rfoot -10.9049 -30.3845
rtoes 6.92428
lfemur -13.2411 -45.8073 -0.269192
ltibia -3.41266
lfoot -13.5682 50.9716
ltoes 11.0611
336
root -0.282052 17.6544 7.16505 14.7966 5.15961 -7.6874
lowerback 14.4737 0.647972 6.06245
upperback -1.91237 2.55073 5.75583
thorax -10.2847 1.06804 2.25013
lowerneck -16.4814 -6.66924 -1.06346
upperneck 10.9125 -9.24577 3.38886
head 6.20601 -4.24261 0.314265
rclavicle 1.35174e-014 -1.51076e-014
rhumerus 28.7723 24.7482 -34.5271
rradius 70.5061
rwrist 11.0259
rhand 9.96463 -46.5894
rfingers 7.12502
rthumb 35.0928 -433.124
lclavicle 1.35174e-014 -1.51076e-014
lhumerus 10.876 -27.8495 69.1787
lradius 86.8523
lwrist 33.9269
lhand -31.8061 -10.3942
lfingers 7.12502
lthumb -5.06152 19.5253
rfemur -15.0077 22.4556 18.8047
rtibia 3.86613
rfoot -10.9115 -30.2585
rtoes 6.95378
lfemur -13.1431 -45.9426 -0.489547
ltibia -3.4316
lfoot -13.6923 51.2676
ltoes 11.0644
337
root -0.286029 17.6564 7.16951 14.9222 4.58223 -7.49883
lowerback 14.6527 0.581247 5.83564
upperback -1.90321 2.41754 5.5707
thorax -10.3765 1.00884 2.20421
lowerneck -16.6406 -6.26694 -0.806676
upperneck 11.3397 -8.77521 3.34971
head 6.34672 -3.99559 0.298948
rclavicle 1.07344e-014 5.48646e-014
rhumerus 27.9255 26.6781 -32.9152
rradius 75.2221
rwrist 9.40468
rhand 10.5959 -46.0815
rfingers 7.12502
rthumb 35.6913 -432.473
lclavicle 1.07344e-014 5.48646e-014
lhumerus 10.1775 -28.6479 66.9286
lradius 87.6727
lwrist 33.9349
lhand -29.5694 -9.15307
lfingers 7.12502
lthumb -2.90164 20.8069
rfemur -15.2804 22.5706 18.5094
rtibia 4.02761
rfoot -10.7887 -29.9315
rtoes 6.82774
lfemur -12.9647 -45.6108 -0.827696
ltibia -3.50503
lfoot -13.7615 51.3556
ltoes 11.1023
338
root -0.287882 17.6564 7.16787 14.9406 3.60994 -7.1047
lowerback 15.0594 0.606522 5.30573
upperback -1.86931 2.35803 5.28323
thorax -10.5781 0.997285 2.19845
lowerneck -16.823 -5.8498 -0.588642
upperneck 11.8428 -8.28512 3.34239
head 6.52034 -3.73599 0.300859
rclavicle 2.78299e-015 6.52014e-014
rhumerus 27.144 28.4258 -31.8167
rradius 79.4074
rwrist 8.24414
rhand 11.0845 -45.6825
rfingers 7.12502
rthumb 36.1542 -431.961
lclavicle 2.78299e-015 6.52014e-014
lhumerus 9.21715 -29.5844 64.5718
lradius 89.1036
lwrist 33.5847
lhand -27.2752 -7.99753
lfingers 7.12502
lthumb -0.685906 21.9811
rfemur -15.586 22.6461 17.9334
rtibia 4.33142
rfoot -10.5269 -29.2771
rtoes 6.30344
lfemur -12.4809 -45.8365 -1.60492
ltibia -3.53441
lfoot -15.39 52.0793
ltoes 12.7959
339
root -0.284422 17.6557 7.18823 15.2673 3.21707 -7.35936
lowerback 14.7505 0.418694 5.70805
upperback -1.87599 2.14013 5.17376
thorax -10.3867 0.868224 1.9042
lowerneck -17.3198 -5.46791 -0.115853
upperneck 12.5733 -7.85036 2.93223
head 6.79445 -3.51725 0.118274
rclavicle 5.56597e-015 2.46493e-014
rhumerus 26.6927 30.2135 -30.6966
rradius 83.2682
rwrist 6.85558
rhand 11.2832 -45.8636
rfingers 7.12502
rthumb 36.3424 -432.095
lclavicle 5.56597e-015 2.46493e-014
lhumerus 8.12138 -30.7242 62.0864
lradius 91.0462
lwrist 32.3972
lhand -24.8063 -7.32277
lfingers 7.12502
lthumb 1.69866 22.6502
rfemur -15.9821 22.3525 18.1661
rtibia 4.42953
rfoot -10.2505 -28.6197
rtoes 5.54259
lfemur -12.6554 -45.5285 -1.23838
ltibia -3.51897
lfoot -16.2511 52.1691
ltoes 13.6335
340
root -0.282764 17.6535 7.19694 15.6141 2.58199 -7.43264
lowerback 14.6205 0.336537 5.79178
upperback -1.90382 2.01354 4.97507
thorax -10.3308 0.796048 1.66967
lowerneck -17.807 -4.98503 0.825182
upperneck 13.2931 -7.30735 2.00709
head 7.02917 -3.27274 -0.289821
rclavicle 4.37326e-015 2.46493e-014
rhumerus 26.3643 32.0118 -29.6406
rradius 86.8716
rwrist 5.29726
rhand 11.5341 -46.3786
rfingers 7.12502
rthumb 36.5799 -432.551
lclavicle 4.37326e-015 2.46493e-014
lhumerus 6.91873 -32.0772 59.6518
lradius 93.3
lwrist 30.6554
lhand -22.1095 -7.45692
lfingers 7.12502
lthumb 4.30308 22.4794
rfemur -16.5828 22.1758 18.0812
rtibia 4.68729
rfoot -10.0137 -27.8997
rtoes 4.99231
lfemur -12.8794 -45.2573 -1.04445
ltibia -3.45609
lfoot -17.1789 52.437
ltoes 14.5614
